<?xml version="1.0" encoding="UTF-8" standalone="no"?>
<svg
   height="1200"
   width="1600"
   version="1.1"
   id="svg162"
   sodipodi:docname="banner_1.svg"
   inkscape:version="1.1.2 (0a00cf5339, 2022-02-04)"
   xmlns:inkscape="http://www.inkscape.org/namespaces/inkscape"
   xmlns:sodipodi="http://sodipodi.sourceforge.net/DTD/sodipodi-0.dtd"
   xmlns="http://www.w3.org/2000/svg"
   xmlns:svg="http://www.w3.org/2000/svg">
  <defs
     id="defs166" />
  <sodipodi:namedview
     id="namedview164"
     pagecolor="#ffffff"
     bordercolor="#666666"
     borderopacity="1.0"
     inkscape:pageshadow="2"
     inkscape:pageopacity="0.0"
     inkscape:pagecheckerboard="0"
     showgrid="false"
     inkscape:zoom="0.59916667"
     inkscape:cx="800.27816"
     inkscape:cy="600"
     inkscape:window-width="2560"
     inkscape:window-height="1376"
     inkscape:window-x="0"
     inkscape:window-y="0"
     inkscape:window-maximized="1"
     inkscape:current-layer="svg162" />
  <rect
     fill="#f3ebe9"
     width="1600"
     height="1200"
     id="rect2"
     style="fill:#ffffff"
     x="0"
     y="0" />
  <g
     id="g6">
    <path
       d="M322.44 854.29C398.05 823.1 480.74 793.29 688.91 842.21 1052.32 927.65 1209.9 903.55 1200.25 808.55 1191.62 724.76 991.74 659.45 898.66 605.12 701.63 490.11 697.53 366.17 868.28 340.86 1036.67 315.89 1169.63 390.07 1247.85 189.2"
       stroke="#221f1f"
       stroke-width="4"
       stroke-linecap="round"
       stroke-linejoin="round"
       opacity="1"
       fill="none"
       id="path4" />
  </g>
  <g
     id="g10">
    <path
       d="M735.04 121.67L1060.87 195.81C1109.85 206.95 1141.62 251.03 1131.79 294.22L967.13 1017.94C957.31 1061.13 909.59 1087.13 860.61 1075.98L534.78 1001.85C485.8 990.71 454.03 946.62 463.86 903.43L628.52 179.72C638.34 136.53 686.06 110.53 735.04 121.67Z"
       fill="#61ccff"
       opacity="1"
       stroke-width="4"
       stroke="none"
       id="path8" />
  </g>
  <g
     id="g14">
    <path
       d="M744.86 145.46L1042.07 213.08C1086.75 223.24 1115.4 264.85 1106.05 305.98L949.27 995.06C939.91 1036.18 896.07 1061.3 851.4 1051.13L554.19 983.51C509.51 973.35 480.86 931.74 490.21 890.61L646.99 201.53C656.35 160.41 700.19 135.29 744.86 145.46Z"
       fill="#ffffff"
       opacity="1"
       stroke-width="4"
       stroke="none"
       id="path12" />
  </g>
  <g
     id="g20">
    <path
       d="M1272.1 940.03L1169.79 925.25 1126.06 951.15C1121.17 954.03 1114.99 952.39 1112.1 947.64 1110.89 945.68 1110.48 943.38 1110.81 941.04L1126.7 831.14C1133.56 783.64 1177.72 750.63 1225.22 757.49L1296.99 767.87C1344.49 774.73 1377.49 818.89 1370.63 866.39 1363.91 913.91 1319.75 946.92 1272.1 940.03Z"
       fill="#ffc930"
       opacity="1"
       stroke-width="4"
       stroke="none"
       id="path16" />
    <path
       d="M1240.23 879.77L1220.94 889.37C1217.4 891.1 1213.15 889.59 1211.4 886.2 1210.48 884.28 1210.36 882.02 1211.39 880.08L1220.34 860.49C1221.61 857.83 1221.01 854.76 1218.95 852.53L1203.88 837.07C1201.14 834.29 1201.19 829.82 1203.98 827.09 1205.52 825.67 1207.57 824.92 1209.78 825.09L1231.21 827.59C1234.15 827.87 1236.89 826.47 1238.31 823.84L1248.37 804.85C1250.21 801.39 1254.43 800.06 1257.9 801.9 1259.84 802.93 1261.07 804.75 1261.52 806.76L1265.79 827.81C1266.41 830.74 1268.64 832.85 1271.55 833.42L1292.8 837.09C1296.58 837.78 1299.18 841.44 1298.63 845.24 1298.34 847.29 1297.02 849.19 1295.08 850.25L1276.24 860.81C1273.65 862.22 1272.33 865.16 1272.66 868.05L1275.69 889.37C1276.33 893.2 1273.57 896.83 1269.75 897.47 1267.62 897.76 1265.47 897.15 1263.88 895.73L1248.1 881.06C1246.01 878.97 1242.8 878.5 1240.23 879.77Z"
       fill="#ffffff"
       opacity="1"
       stroke-width="4"
       stroke="none"
       id="path18" />
  </g>
  <g
     id="g40">
    <path
       d="M175.17 560.41C160.85 557.65 151.48 543.82 154.24 529.51 156.99 515.2 170.83 505.83 185.14 508.58 199.45 511.34 208.82 525.17 206.07 539.48 203.31 553.79 189.48 563.16 175.17 560.41Z"
       fill="#ff4f32"
       opacity="1"
       stroke-width="4"
       stroke="none"
       id="path22" />
    <path
       d="M636.34 563.61C627.28 561.87 621.36 553.12 623.1 544.06 624.84 535.01 633.59 529.08 642.65 530.82 651.7 532.57 657.63 541.32 655.89 550.37 654.15 559.43 645.39 565.36 636.34 563.61Z"
       fill="#ff4f32"
       opacity="1"
       stroke-width="4"
       stroke="none"
       id="path24" />
    <path
       d="M909.77 750.06C900.72 748.32 894.79 739.57 896.53 730.51 898.28 721.46 907.03 715.53 916.08 717.27 925.14 719.02 931.07 727.77 929.32 736.82 927.58 745.88 918.83 751.81 909.77 750.06Z"
       fill="#ff4f32"
       opacity="1"
       stroke-width="4"
       stroke="none"
       id="path26" />
    <path
       d="M1322.94 512.59C1317.39 511.52 1313.76 506.16 1314.82 500.6 1315.89 495.05 1321.25 491.42 1326.81 492.49 1332.36 493.56 1335.99 498.92 1334.92 504.47 1333.85 510.02 1328.49 513.65 1322.94 512.59Z"
       fill="#ff4f32"
       opacity="1"
       stroke-width="4"
       stroke="none"
       id="path28" />
    <path
       d="M663.42 628.06C657.87 626.99 654.24 621.63 655.31 616.08 656.38 610.52 661.74 606.89 667.29 607.96 672.84 609.03 676.47 614.39 675.4 619.94 674.34 625.5 668.97 629.13 663.42 628.06Z"
       fill="#ff4f32"
       opacity="1"
       stroke-width="4"
       stroke="none"
       id="path30" />
    <path
       d="M377.62 688.22C372.07 687.15 368.44 681.79 369.51 676.24 370.57 670.69 375.94 667.06 381.49 668.13 387.04 669.2 390.67 674.56 389.6 680.11 388.53 685.66 383.17 689.29 377.62 688.22Z"
       fill="#ff4f32"
       opacity="1"
       stroke-width="4"
       stroke="none"
       id="path32" />
    <path
       d="M1466.45 610.41C1460.9 609.34 1457.27 603.98 1458.34 598.43 1459.4 592.87 1464.76 589.24 1470.32 590.31 1475.87 591.38 1479.5 596.74 1478.43 602.29 1477.36 607.85 1472 611.48 1466.45 610.41Z"
       fill="#ff4f32"
       opacity="1"
       stroke-width="4"
       stroke="none"
       id="path34" />
    <path
       d="M897.83 356.18C892.28 355.11 888.65 349.75 889.72 344.19 890.79 338.64 896.15 335.01 901.7 336.08 907.26 337.15 910.89 342.51 909.82 348.06 908.75 353.62 903.39 357.25 897.83 356.18Z"
       fill="#ffffff"
       opacity="1"
       stroke-width="4"
       stroke="none"
       id="path36" />
    <path
       d="M1131.4 578.83C1117.09 576.07 1107.72 562.24 1110.47 547.92 1113.22 533.61 1127.06 524.24 1141.37 527 1155.68 529.75 1165.05 543.59 1162.3 557.9 1159.54 572.21 1145.71 581.58 1131.4 578.83Z"
       fill="#ffffff"
       opacity="1"
       stroke-width="4"
       stroke="none"
       id="path38" />
  </g>
  <g
     id="g46">
    <path
       d="M325.6 934.88C382.82 927.47 423.2 875.08 415.79 817.86 408.39 760.64 356 720.26 298.78 727.67 241.56 735.08 201.18 787.47 208.58 844.68 215.99 901.9 268.38 942.29 325.6 934.88Z"
       fill="#ff4f32"
       opacity="1"
       stroke-width="4"
       stroke="none"
       id="path42" />
    <path
       d="M272.15 835.08L308.48 863.09 348.23 795.29"
       stroke="#000000"
       stroke-width="4"
       stroke-linecap="round"
       stroke-linejoin="round"
       opacity="1"
       fill="none"
       id="path44" />
  </g>
  <g
     id="g62">
    <path
       d="M1276.68 123.58C1336.72 116.5 1391.01 159.33 1398.09 219.38 1405.17 279.43 1359.04 334.1 1299.13 341.16 1239.23 348.23 1187.96 305.04 1180.88 244.99 1173.8 184.95 1216.63 130.66 1276.68 123.58Z"
       fill="#ff4f32"
       opacity="1"
       stroke-width="4"
       stroke="none"
       id="path48" />
    <path
       d="M1190.37 185.91L1375.11 164.12"
       stroke="#000000"
       stroke-width="4"
       stroke-linecap="round"
       stroke-linejoin="round"
       opacity="1"
       fill="none"
       id="path50" />
    <path
       d="M1180.88 244.99L1398.09 219.38"
       stroke="#000000"
       stroke-width="4"
       stroke-linecap="round"
       stroke-linejoin="round"
       opacity="1"
       fill="none"
       id="path52" />
    <path
       d="M1204.04 300.53L1388.58 278.32"
       stroke="#000000"
       stroke-width="4"
       stroke-linecap="round"
       stroke-linejoin="round"
       opacity="1"
       fill="none"
       id="path54" />
    <path
       d="M1299.13 341.16L1276.68 123.58"
       stroke="#000000"
       stroke-width="4"
       stroke-linecap="round"
       stroke-linejoin="round"
       opacity="1"
       fill="none"
       id="path56" />
    <path
       d="M1276.68 123.58C1276.68 123.58 1147.85 236.66 1299.13 341.16"
       stroke="#000000"
       stroke-width="4"
       stroke-linecap="round"
       stroke-linejoin="round"
       opacity="1"
       fill="none"
       id="path58" />
    <path
       d="M1276.82 123.57C1276.82 123.57 1423.05 201.29 1299.13 341.16"
       stroke="#000000"
       stroke-width="4"
       stroke-linecap="round"
       stroke-linejoin="round"
       opacity="1"
       fill="none"
       id="path60" />
  </g>
  <g
     id="g66">
    <path
       d="M332.57 268.59L539.79 232.41 458.33 425.96 436.97 372.13 374.73 421.83 318.19 351.05 380.42 301.34 332.57 268.59Z"
       fill="#231f20"
       opacity="1"
       stroke-width="4"
       stroke="none"
       id="path64" />
  </g>
  <g
     id="g160">
    <path
       d="M1060.57 473.82L619.15 372.02 535.72 733.76 977.13 835.57 1060.57 473.82Z"
       fill="#ffffff"
       opacity="1"
       stroke-width="4"
       stroke="none"
       id="path68" />
    <path
       d="M758.97 431.53L807.47 442.72C817.83 445.11 824.34 455.52 821.95 465.88L810.76 514.39C808.37 524.75 797.96 531.25 787.61 528.87L739.1 517.68C728.74 515.29 722.23 504.88 724.62 494.52L735.81 446.01C738.2 435.65 748.52 429.13 758.97 431.53Z"
       fill="#6f589b"
       opacity="1"
       stroke-width="4"
       stroke="none"
       id="path70" />
    <path
       d="M755.5 476.1L743.59 473.35 740.85 485.26 752.76 488.01 755.5 476.1Z"
       fill="#3c2c5b"
       opacity="1"
       stroke-width="4"
       stroke="none"
       id="path72" />
    <path
       d="M770.14 467.02L758.23 464.27 755.48 476.19 767.4 478.93 770.14 467.02Z"
       fill="#3c2c5b"
       opacity="1"
       stroke-width="4"
       stroke="none"
       id="path74" />
    <path
       d="M779.33 481.59L767.42 478.85 764.67 490.76 776.58 493.51 779.33 481.59Z"
       fill="#3c2c5b"
       opacity="1"
       stroke-width="4"
       stroke="none"
       id="path76" />
    <path
       d="M793.97 472.52L782.06 469.77 779.31 481.68 791.22 484.43 793.97 472.52Z"
       fill="#3c2c5b"
       opacity="1"
       stroke-width="4"
       stroke="none"
       id="path78" />
    <path
       d="M803.06 487.07L791.15 484.32 788.41 496.23 800.32 498.98 803.06 487.07Z"
       fill="#3c2c5b"
       opacity="1"
       stroke-width="4"
       stroke="none"
       id="path80" />
    <path
       d="M657.8 408.2L706.31 419.39C716.67 421.78 723.18 432.19 720.79 442.55L709.6 491.06C707.21 501.41 696.8 507.92 686.45 505.53L637.94 494.35C627.58 491.96 621.07 481.55 623.46 471.19L634.65 422.68C637.04 412.32 647.36 405.79 657.8 408.2Z"
       fill="#6f589b"
       opacity="1"
       stroke-width="4"
       stroke="none"
       id="path82" />
    <path
       d="M652.69 478.84C650.45 478.32 648.97 476.07 649.51 473.74L652.67 460.02C653.19 457.77 655.44 456.29 657.77 456.83 660.01 457.35 661.5 459.6 660.96 461.93L657.79 475.65C657.25 477.98 654.94 479.36 652.69 478.84Z"
       fill="#000000"
       opacity="1"
       stroke-width="4"
       stroke="none"
       id="path84" />
    <path
       d="M679.97 485.13C677.72 484.61 676.24 482.36 676.78 480.03L679.95 466.31C680.46 464.06 682.8 462.6 685.05 463.12 687.29 463.64 688.77 465.89 688.23 468.22L685.07 481.94C684.53 484.27 682.21 485.65 679.97 485.13Z"
       fill="#000000"
       opacity="1"
       stroke-width="4"
       stroke="none"
       id="path86" />
    <path
       d="M654.68 451.3L657.51 439.04C658.94 432.83 665.21 428.91 671.42 430.34L684.37 433.33C690.59 434.76 694.5 441.03 693.07 447.25L690.24 459.5 654.68 451.3Z"
       fill="#ffc82e"
       opacity="1"
       stroke-width="4"
       stroke="none"
       id="path88" />
    <path
       d="M690.3 459.24L654.74 451.04 650.44 469.69 686 477.89 690.3 459.24Z"
       fill="#3c2c5b"
       opacity="1"
       stroke-width="4"
       stroke="none"
       id="path90" />
    <path
       d="M660.65 465.22C662.51 465.65 664.37 464.49 664.8 462.63 665.22 460.78 664.06 458.92 662.21 458.49 660.35 458.06 658.49 459.22 658.06 461.08 657.63 462.94 658.8 464.79 660.65 465.22Z"
       fill="#6f589b"
       opacity="1"
       stroke-width="4"
       stroke="none"
       id="path92" />
    <path
       d="M678.78 469.4C680.63 469.83 682.49 468.67 682.92 466.81 683.35 464.96 682.19 463.1 680.33 462.67 678.48 462.24 676.62 463.4 676.19 465.26 675.76 467.12 676.92 468.97 678.78 469.4Z"
       fill="#6f589b"
       opacity="1"
       stroke-width="4"
       stroke="none"
       id="path94" />
    <path
       d="M859.95 454.83L908.46 466.01C918.82 468.4 925.33 478.81 922.94 489.17L911.75 537.68C909.36 548.04 898.95 554.55 888.6 552.16L840.09 540.97C829.73 538.58 823.22 528.17 825.61 517.81L836.8 469.3C839.19 458.95 849.51 452.42 859.95 454.83Z"
       fill="#6f589b"
       opacity="1"
       stroke-width="4"
       stroke="none"
       id="path96" />
    <path
       d="M905.27 496.82C905.29 496.74 905.22 496.63 905.15 496.52 903.17 492.89 898.95 491.09 894.99 492.09L884.35 494.91 876.3 489.96C873.64 488.53 870.51 487.9 867.53 488.21 867.53 488.21 867.53 488.21 867.44 488.19 866.88 488.24 866.44 488.59 866.32 489.11 866.2 489.63 866.34 490.21 866.71 490.57L873.07 497.67 863.7 500.05C862.66 500.27 861.62 500.03 860.73 499.55L852.7 494.15C851.42 493.4 849.95 493.06 848.47 493.18L847.64 493.26C847.16 493.33 846.74 493.6 846.55 494.01 846.35 494.51 846.38 495.15 846.73 495.59L854.28 506.24C856.74 509.36 860.76 510.83 864.6 509.99L875.22 507.26 870.67 517.93C870.67 517.93 870.67 517.93 870.65 518.02 870.45 518.52 870.5 519.08 870.85 519.52 871.07 519.75 871.31 519.9 871.59 519.87 871.85 519.93 872.04 519.89 872.23 519.84L873.3 519.54C875.95 518.7 878.39 517.17 880.24 515.05L889.64 503.49 903.45 499.95C904.31 499.78 905.09 499.15 905.38 498.3 905.46 497.96 905.51 497.33 905.27 496.82Z"
       fill="#3c2c5b"
       opacity="1"
       stroke-width="4"
       stroke="none"
       id="path98" />
    <path
       d="M961.55 478.26L1010.06 489.45C1020.41 491.83 1026.92 502.24 1024.53 512.6L1013.34 561.11C1010.96 571.47 1000.55 577.98 990.19 575.59L941.68 564.4C931.32 562.01 924.81 551.6 927.2 541.24L938.39 492.73C940.78 482.38 951.1 475.85 961.55 478.26Z"
       fill="#6f589b"
       opacity="1"
       stroke-width="4"
       stroke="none"
       id="path100" />
    <path
       d="M987.05 509.96L973.24 506.77 964.68 543.89 978.49 547.07 987.05 509.96Z"
       fill="#3c2c5b"
       opacity="1"
       stroke-width="4"
       stroke="none"
       id="path102" />
    <path
       d="M996.02 524.3L958.9 515.74 955.72 529.55 992.83 538.11 996.02 524.3Z"
       fill="#3c2c5b"
       opacity="1"
       stroke-width="4"
       stroke="none"
       id="path104" />
    <path
       d="M632.4 517.98L984.73 599.24C995.09 601.63 1001.6 612.04 999.21 622.4L961.68 785.1C959.3 795.46 948.89 801.97 938.53 799.58L586.19 718.31C575.83 715.92 569.32 705.51 571.71 695.16L609.24 532.45C611.63 522.1 621.95 515.57 632.4 517.98Z"
       fill="#ffc930"
       opacity="1"
       stroke-width="4"
       stroke="none"
       id="path106" />
    <path
       d="M649.12 627.56L856.97 675.5"
       stroke="#010005"
       stroke-width="4"
       opacity="1"
       fill="none"
       id="path108" />
    <path
       d="M653.87 578.2L643.6 622.74"
       stroke="#010005"
       stroke-width="4"
       opacity="1"
       fill="none"
       id="path110" />
    <path
       d="M638.87 641.65C647.6 643.66 656.3 638.22 658.31 629.5 660.32 620.77 654.88 612.07 646.16 610.06 637.43 608.04 628.73 613.48 626.72 622.21 624.71 630.94 630.14 639.64 638.87 641.65Z"
       fill="#010005"
       opacity="1"
       stroke-width="4"
       stroke="none"
       id="path112" />
    <path
       d="M641.02 632.33C644.78 633.19 648.54 630.84 649.41 627.08 650.28 623.32 647.93 619.56 644.17 618.69 640.4 617.82 636.64 620.17 635.77 623.93 634.91 627.7 637.26 631.46 641.02 632.33Z"
       fill="#3c2c5b"
       opacity="1"
       stroke-width="4"
       stroke="none"
       id="path114" />
    <path
       d="M710.34 658.13C719.07 660.14 727.77 654.71 729.78 645.98 731.79 637.25 726.35 628.55 717.63 626.54 708.9 624.53 700.2 629.97 698.19 638.69 696.17 647.42 701.61 656.12 710.34 658.13Z"
       fill="#010005"
       opacity="1"
       stroke-width="4"
       stroke="none"
       id="path116" />
    <path
       d="M712.49 648.81C716.25 649.68 720.01 647.33 720.88 643.56 721.75 639.8 719.4 636.04 715.63 635.17 711.87 634.3 708.11 636.65 707.24 640.42 706.38 644.18 708.73 647.94 712.49 648.81Z"
       fill="#3c2c5b"
       opacity="1"
       stroke-width="4"
       stroke="none"
       id="path118" />
    <path
       d="M853.28 691.1C862 693.11 870.7 687.67 872.72 678.95 874.73 670.22 869.29 661.52 860.56 659.51 851.84 657.49 843.14 662.93 841.12 671.66 839.11 680.39 844.55 689.09 853.28 691.1Z"
       fill="#010005"
       opacity="1"
       stroke-width="4"
       stroke="none"
       id="path120" />
    <path
       d="M855.61 682.18C859.37 683.05 863.13 680.7 864 676.94 864.87 673.17 862.52 669.41 858.75 668.54 854.99 667.68 851.23 670.03 850.36 673.79 849.49 677.55 851.84 681.31 855.61 682.18Z"
       fill="#3c2c5b"
       opacity="1"
       stroke-width="4"
       stroke="none"
       id="path122" />
    <path
       d="M794.36 620.6L775.9 700.62"
       stroke="#010005"
       stroke-width="4"
       opacity="1"
       fill="none"
       id="path124" />
    <path
       d="M804.91 606.4L932.48 635.82"
       stroke="#010005"
       stroke-width="4"
       opacity="1"
       fill="none"
       id="path126" />
    <path
       d="M706.21 696.54L771.55 711.61"
       stroke="#010005"
       stroke-width="4"
       opacity="1"
       fill="none"
       id="path128" />
    <path
       d="M781.81 674.62C790.53 676.63 799.23 671.19 801.25 662.46 803.26 653.74 797.82 645.04 789.09 643.02 780.37 641.01 771.67 646.45 769.66 655.18 767.64 663.9 773.08 672.6 781.81 674.62Z"
       fill="#010005"
       opacity="1"
       stroke-width="4"
       stroke="none"
       id="path130" />
    <path
       d="M784.05 665.68C787.81 666.55 791.58 664.2 792.44 660.43 793.31 656.67 790.96 652.91 787.2 652.04 783.43 651.17 779.67 653.52 778.81 657.29 777.94 661.05 780.29 664.81 784.05 665.68Z"
       fill="#3c2c5b"
       opacity="1"
       stroke-width="4"
       stroke="none"
       id="path132" />
    <path
       d="M787.22 651.95L784.05 665.68C780.25 664.8 777.95 661 778.83 657.2 779.68 653.49 783.51 651.1 787.22 651.95Z"
       fill="#6f589b"
       opacity="1"
       stroke-width="4"
       stroke="none"
       id="path134" />
    <path
       d="M651.21 588.13C659.94 590.15 668.64 584.71 670.65 575.98 672.66 567.25 667.23 558.55 658.5 556.54 649.77 554.53 641.07 559.97 639.06 568.69 637.05 577.42 642.49 586.12 651.21 588.13Z"
       fill="#010005"
       opacity="1"
       stroke-width="4"
       stroke="none"
       id="path136" />
    <path
       d="M653.36 578.81C657.13 579.68 660.89 577.33 661.75 573.56 662.62 569.8 660.27 566.04 656.51 565.17 652.75 564.3 648.99 566.66 648.12 570.42 647.25 574.18 649.6 577.94 653.36 578.81Z"
       fill="#3c2c5b"
       opacity="1"
       stroke-width="4"
       stroke="none"
       id="path138" />
    <path
       d="M865.62 637.58C874.35 639.6 883.05 634.16 885.06 625.43 887.07 616.7 881.63 608 872.91 605.99 864.18 603.98 855.48 609.42 853.47 618.14 851.45 626.87 856.89 635.57 865.62 637.58Z"
       fill="#010005"
       opacity="1"
       stroke-width="4"
       stroke="none"
       id="path140" />
    <path
       d="M867.95 628.67C871.71 629.53 875.47 627.18 876.34 623.42 877.21 619.66 874.86 615.9 871.09 615.03 867.33 614.16 863.57 616.51 862.7 620.27 861.84 624.04 864.19 627.8 867.95 628.67Z"
       fill="#6f589b"
       opacity="1"
       stroke-width="4"
       stroke="none"
       id="path142" />
    <path
       d="M937.09 654.07C945.82 656.08 954.52 650.64 956.53 641.91 958.54 633.19 953.1 624.49 944.38 622.48 935.65 620.46 926.95 625.9 924.94 634.63 922.92 643.35 928.36 652.05 937.09 654.07Z"
       fill="#010005"
       opacity="1"
       stroke-width="4"
       stroke="none"
       id="path144" />
    <path
       d="M939.42 645.15C943.18 646.02 946.94 643.67 947.81 639.9 948.68 636.14 946.33 632.38 942.56 631.51 938.8 630.64 935.04 632.99 934.17 636.76 933.3 640.52 935.66 644.28 939.42 645.15Z"
       fill="#6f589b"
       opacity="1"
       stroke-width="4"
       stroke="none"
       id="path146" />
    <path
       d="M794.15 621.1C802.88 623.11 811.58 617.67 813.59 608.95 815.6 600.22 810.16 591.52 801.44 589.51 792.71 587.5 784.01 592.93 782 601.66 779.99 610.39 785.42 619.09 794.15 621.1Z"
       fill="#010005"
       opacity="1"
       stroke-width="4"
       stroke="none"
       id="path148" />
    <path
       d="M796.39 612.16C800.16 613.03 803.92 610.68 804.79 606.92 805.65 603.15 803.3 599.39 799.54 598.52 795.78 597.66 792.02 600.01 791.15 603.77 790.28 607.53 792.63 611.29 796.39 612.16Z"
       fill="#6f589b"
       opacity="1"
       stroke-width="4"
       stroke="none"
       id="path150" />
    <path
       d="M698 711.65C706.72 713.66 715.42 708.22 717.44 699.49 719.45 690.77 714.01 682.07 705.28 680.06 696.56 678.04 687.86 683.48 685.84 692.21 683.83 700.93 689.27 709.63 698 711.65Z"
       fill="#010005"
       opacity="1"
       stroke-width="4"
       stroke="none"
       id="path152" />
    <path
       d="M700.15 702.32C703.91 703.19 707.67 700.84 708.54 697.08 709.41 693.32 707.06 689.56 703.29 688.69 699.53 687.82 695.77 690.17 694.9 693.93 694.03 697.7 696.38 701.46 700.15 702.32Z"
       fill="#6f589b"
       opacity="1"
       stroke-width="4"
       stroke="none"
       id="path154" />
    <path
       d="M769.47 728.13C778.19 730.14 786.89 724.7 788.9 715.98 790.92 707.25 785.48 698.55 776.75 696.54 768.03 694.53 759.33 699.97 757.31 708.69 755.3 717.42 760.74 726.12 769.47 728.13Z"
       fill="#010005"
       opacity="1"
       stroke-width="4"
       stroke="none"
       id="path156" />
    <path
       d="M771.71 719.19C775.47 720.06 779.23 717.71 780.1 713.95 780.97 710.18 778.62 706.42 774.85 705.56 771.09 704.69 767.33 707.04 766.46 710.8 765.59 714.57 767.95 718.33 771.71 719.19Z"
       fill="#6f589b"
       opacity="1"
       stroke-width="4"
       stroke="none"
       id="path158" />
  </g>
</svg>
