<svg xmlns="http://www.w3.org/2000/svg" height="1200" width="1600" version="1.1" xmlns:xlink="http://www.w3.org/1999/xlink" xmlns:svgjs="http://svgjs.com/svgjs"><rect fill="#f3ebe9" width="1600" height="1200"></rect><g><path d="M1032.57 436.46L1447.75 438.2C1464.33 438.2 1463.06 441.41 1463.06 457.99L1478.77 488.74V780.57C1478.77 797.15 1465.33 810.59 1448.75 810.59H1031.16C1014.58 810.59 1001.15 797.15 1001.15 780.57V488.74L1015.52 461.06C1015.52 444.48 1015.99 436.46 1032.57 436.46Z" fill="#cecece" opacity="1" stroke-width="4" stroke="none"></path><path d="M1031.16 427.23H1448.75C1465.33 427.23 1478.77 440.67 1478.77 457.25V488.74H1001.15V457.25C1001.15 440.67 1014.58 427.23 1031.16 427.23Z" fill="#ffffff" opacity="1" stroke-width="4" stroke="none"></path><path d="M1434.65 471.43C1441.89 471.43 1447.75 465.56 1447.75 458.32 1447.75 451.08 1441.89 445.22 1434.65 445.22 1427.41 445.22 1421.54 451.08 1421.54 458.32 1421.54 465.56 1427.41 471.43 1434.65 471.43Z" stroke="#cecece" stroke-width="4" stroke-linecap="round" stroke-linejoin="round" opacity="1" fill="none"></path><path d="M1420.67 472.3L1425.42 467.55" stroke="#cecece" stroke-width="4" stroke-linecap="round" stroke-linejoin="round" opacity="1" fill="none"></path></g><g><path d="M152.75 615.98L558.71 617.7C572.42 617.7 576.18 619.13 576.18 632.85L583.53 652.81V952.55C583.53 966.26 572.42 977.38 558.71 977.38H152.75C139.04 977.38 127.92 966.26 127.92 952.55V652.81L134.61 632.85C134.61 619.13 139.04 615.98 152.75 615.98Z" fill="#cecece" opacity="1" stroke-width="4" stroke="none"></path><path d="M152.75 608.02H558.71C572.42 608.02 583.53 619.13 583.53 632.85V652.81H127.92V632.85C127.92 619.13 139.04 608.02 152.75 608.02Z" fill="#a4a4a4" opacity="1" stroke-width="4" stroke="none"></path><path d="M162.92 638.71C167.2 638.71 170.66 635.24 170.66 630.97 170.66 626.69 167.2 623.23 162.92 623.23 158.65 623.23 155.18 626.69 155.18 630.97 155.18 635.24 158.65 638.71 162.92 638.71Z" fill="#ffffff" opacity="1" stroke-width="4" stroke="none"></path><path d="M188.08 638.71C192.36 638.71 195.82 635.24 195.82 630.97 195.82 626.69 192.36 623.23 188.08 623.23 183.81 623.23 180.34 626.69 180.34 630.97 180.34 635.24 183.81 638.71 188.08 638.71Z" fill="#cfcfcf" opacity="1" stroke-width="4" stroke="none"></path><path d="M213.24 638.71C217.51 638.71 220.98 635.24 220.98 630.97 220.98 626.69 217.51 623.23 213.24 623.23 208.97 623.23 205.5 626.69 205.5 630.97 205.5 635.24 208.97 638.71 213.24 638.71Z" fill="#cfcfcf" opacity="1" stroke-width="4" stroke="none"></path><path d="M298.56 630.8H412.96" stroke="#cfcfcf" stroke-width="4" stroke-linecap="round" stroke-linejoin="round" opacity="1" fill="none"></path></g><g><path d="M282.84 133.96H500.86C515.14 133.96 526.73 145.54 526.73 159.82V372.6C526.73 386.87 515.14 398.46 500.86 398.46H282.84C268.57 398.46 256.98 386.87 256.98 372.6V159.82C256.98 145.54 268.57 133.96 282.84 133.96Z" fill="#353535" opacity="1" stroke-width="4" stroke="none"></path><path d="M296.07 120.86H514.09C528.36 120.86 539.95 132.45 539.95 146.72V359.5C539.95 373.78 528.36 385.37 514.09 385.37H296.07C281.8 385.37 270.21 373.78 270.21 359.5V146.72C270.21 132.45 281.8 120.86 296.07 120.86Z" fill="#ffa0dc" opacity="1" stroke-width="4" stroke="none"></path><path d="M350.48 231.51C356.24 231.51 360.95 236.22 360.95 241.98V264.24C360.95 270.01 356.24 274.72 350.48 274.72 344.72 274.72 340 270.01 340 264.24V241.98C340.07 236.22 344.72 231.51 350.48 231.51Z" stroke="#ffffff" stroke-width="4" stroke-linecap="round" stroke-linejoin="round" opacity="1" fill="none"></path><path d="M386.88 231.51C392.64 231.51 397.35 236.22 397.35 241.98V264.24C397.35 270.01 392.64 274.72 386.88 274.72 381.12 274.72 376.4 270.01 376.4 264.24V241.98C376.47 236.22 381.12 231.51 386.88 231.51Z" stroke="#ffffff" stroke-width="4" stroke-linecap="round" stroke-linejoin="round" opacity="1" fill="none"></path><path d="M303.6 231.51H314.07V274.72" stroke="#ffffff" stroke-width="4" stroke-linecap="round" stroke-linejoin="round" opacity="1" fill="none"></path><path d="M303.6 274.72H324.55" stroke="#ffffff" stroke-width="4" stroke-linecap="round" stroke-linejoin="round" opacity="1" fill="none"></path><path d="M412.81 231.51H423.28V274.72" stroke="#ffffff" stroke-width="4" stroke-linecap="round" stroke-linejoin="round" opacity="1" fill="none"></path><path d="M412.81 274.72H433.76" stroke="#ffffff" stroke-width="4" stroke-linecap="round" stroke-linejoin="round" opacity="1" fill="none"></path><path d="M459.68 231.51C465.44 231.51 470.16 236.22 470.16 241.98V264.24C470.16 270.01 465.44 274.72 459.68 274.72 453.92 274.72 449.21 270.01 449.21 264.24V241.98C449.21 236.22 453.92 231.51 459.68 231.51Z" stroke="#ffffff" stroke-width="4" stroke-linecap="round" stroke-linejoin="round" opacity="1" fill="none"></path><path d="M485.61 231.51H496.08V274.72" stroke="#ffffff" stroke-width="4" stroke-linecap="round" stroke-linejoin="round" opacity="1" fill="none"></path><path d="M485.61 274.72H506.56" stroke="#ffffff" stroke-width="4" stroke-linecap="round" stroke-linejoin="round" opacity="1" fill="none"></path><path d="M314.07 158.51C319.84 158.51 324.55 163.22 324.55 168.98V191.24C324.55 197 319.84 201.72 314.07 201.72 308.31 201.72 303.6 197 303.6 191.24V168.98C303.6 163.22 308.31 158.51 314.07 158.51Z" stroke="#ffffff" stroke-width="4" stroke-linecap="round" stroke-linejoin="round" opacity="1" fill="none"></path><path d="M386.88 158.51C392.64 158.51 397.35 163.22 397.35 168.98V191.24C397.35 197 392.64 201.72 386.88 201.72 381.12 201.72 376.4 197 376.4 191.24V168.98C376.47 163.22 381.12 158.51 386.88 158.51Z" stroke="#ffffff" stroke-width="4" stroke-linecap="round" stroke-linejoin="round" opacity="1" fill="none"></path><path d="M496.08 158.51C501.85 158.51 506.56 163.22 506.56 168.98V191.24C506.56 197 501.85 201.72 496.08 201.72 490.32 201.72 485.61 197 485.61 191.24V168.98C485.61 163.22 490.32 158.51 496.08 158.51Z" stroke="#ffffff" stroke-width="4" stroke-linecap="round" stroke-linejoin="round" opacity="1" fill="none"></path><path d="M340.07 158.51H350.54V201.72" stroke="#ffffff" stroke-width="4" stroke-linecap="round" stroke-linejoin="round" opacity="1" fill="none"></path><path d="M340.07 201.72H361.02" stroke="#ffffff" stroke-width="4" stroke-linecap="round" stroke-linejoin="round" opacity="1" fill="none"></path><path d="M412.81 158.51H423.28V201.72" stroke="#ffffff" stroke-width="4" stroke-linecap="round" stroke-linejoin="round" opacity="1" fill="none"></path><path d="M412.81 201.72H433.76" stroke="#ffffff" stroke-width="4" stroke-linecap="round" stroke-linejoin="round" opacity="1" fill="none"></path><path d="M449.21 158.51H459.68V201.72" stroke="#ffffff" stroke-width="4" stroke-linecap="round" stroke-linejoin="round" opacity="1" fill="none"></path><path d="M449.21 201.72H470.16" stroke="#ffffff" stroke-width="4" stroke-linecap="round" stroke-linejoin="round" opacity="1" fill="none"></path><path d="M461.91 304.51C467.67 304.51 472.38 309.22 472.38 314.98V337.24C472.38 343.01 467.67 347.72 461.91 347.72 456.15 347.72 451.43 343.01 451.43 337.24V314.98C451.43 309.22 456.15 304.51 461.91 304.51Z" stroke="#ffffff" stroke-width="4" stroke-linecap="round" stroke-linejoin="round" opacity="1" fill="none"></path><path d="M386.75 304.51C392.51 304.51 397.22 309.22 397.22 314.98V337.24C397.22 343.01 392.51 347.72 386.75 347.72 380.99 347.72 376.27 343.01 376.27 337.24V314.98C376.27 309.22 380.99 304.51 386.75 304.51Z" stroke="#ffffff" stroke-width="4" stroke-linecap="round" stroke-linejoin="round" opacity="1" fill="none"></path><path d="M424.33 304.51C430.09 304.51 434.8 309.22 434.8 314.98V337.24C434.8 343.01 430.09 347.72 424.33 347.72 418.57 347.72 413.85 343.01 413.85 337.24V314.98C413.85 309.22 418.57 304.51 424.33 304.51Z" stroke="#ffffff" stroke-width="4" stroke-linecap="round" stroke-linejoin="round" opacity="1" fill="none"></path><path d="M485.61 304.51H496.08V347.72" stroke="#ffffff" stroke-width="4" stroke-linecap="round" stroke-linejoin="round" opacity="1" fill="none"></path><path d="M485.61 347.72H506.56" stroke="#ffffff" stroke-width="4" stroke-linecap="round" stroke-linejoin="round" opacity="1" fill="none"></path><path d="M340.07 304.51H350.54V347.72" stroke="#ffffff" stroke-width="4" stroke-linecap="round" stroke-linejoin="round" opacity="1" fill="none"></path><path d="M340.07 347.72H361.02" stroke="#ffffff" stroke-width="4" stroke-linecap="round" stroke-linejoin="round" opacity="1" fill="none"></path><path d="M303.6 304.51H314.07V347.72" stroke="#ffffff" stroke-width="4" stroke-linecap="round" stroke-linejoin="round" opacity="1" fill="none"></path><path d="M303.6 347.72H324.55" stroke="#ffffff" stroke-width="4" stroke-linecap="round" stroke-linejoin="round" opacity="1" fill="none"></path></g><g><path d="M1060.22 1015.78C1032.24 1014.45 1002.14 1014.19 940.34 1047.75 832.45 1106.36 778.77 1114.88 771.17 1087.71 764.51 1063.74 821.79 1026.44 845.77 1002.46 896.51 951.72 883.86 917.08 825.79 926.54 768.51 935.86 733.88 969.16 685.93 921.21" stroke="#231f20" stroke-width="4" stroke-linecap="round" stroke-linejoin="round" opacity="1" fill="none"></path></g><g><path d="M1381.96 520.68H1160.24V780.1H1381.96V520.68Z" fill="#61ccff" opacity="1" stroke-width="4" stroke="none"></path><path d="M1202.74 568.72H1248.56C1252.4 568.72 1255.58 571.9 1255.58 575.74 1255.58 579.58 1252.4 582.76 1248.56 582.76H1202.74C1198.89 582.76 1195.71 579.58 1195.71 575.74 1195.71 571.9 1198.89 568.72 1202.74 568.72Z" fill="#231f20" opacity="1" stroke-width="4" stroke="none"></path><path d="M1276.64 568.72H1292.9C1296.75 568.72 1299.93 571.9 1299.93 575.74 1299.93 579.58 1296.75 582.76 1292.9 582.76H1276.64C1272.8 582.76 1269.62 579.58 1269.62 575.74 1269.62 571.9 1272.8 568.72 1276.64 568.72Z" fill="#9e76dd" opacity="1" stroke-width="4" stroke="none"></path><path d="M1320.25 568.72H1336.51C1340.35 568.72 1343.53 571.9 1343.53 575.74 1343.53 579.58 1340.35 582.76 1336.51 582.76H1320.25C1316.41 582.76 1313.23 579.58 1313.23 575.74 1313.23 571.9 1316.41 568.72 1320.25 568.72Z" fill="#ffa0dc" opacity="1" stroke-width="4" stroke="none"></path><path d="M1202.74 680.69H1248.56C1252.4 680.69 1255.58 683.87 1255.58 687.71 1255.58 691.56 1252.4 694.73 1248.56 694.73H1202.74C1198.89 694.73 1195.71 691.56 1195.71 687.71 1195.71 683.87 1198.89 680.69 1202.74 680.69Z" fill="#ffa0dc" opacity="1" stroke-width="4" stroke="none"></path><path d="M1276.64 680.69H1336.51C1340.35 680.69 1343.53 683.87 1343.53 687.71 1343.53 691.56 1340.35 694.73 1336.51 694.73H1276.64C1272.8 694.73 1269.62 691.56 1269.62 687.71 1269.62 683.87 1272.8 680.69 1276.64 680.69Z" fill="#ffffff" opacity="1" stroke-width="4" stroke="none"></path><path d="M1202.74 643.37H1273.69C1277.53 643.37 1280.71 646.55 1280.71 650.39 1280.71 654.23 1277.53 657.41 1273.69 657.41H1202.74C1198.89 657.41 1195.71 654.23 1195.71 650.39 1195.71 646.55 1198.89 643.37 1202.74 643.37Z" fill="#9e76dd" opacity="1" stroke-width="4" stroke="none"></path><path d="M1247.08 606.04H1292.9C1296.75 606.04 1299.93 609.22 1299.93 613.07 1299.93 616.91 1296.75 620.09 1292.9 620.09H1247.08C1243.24 620.09 1240.06 616.91 1240.06 613.07 1240.06 609.22 1243.24 606.04 1247.08 606.04Z" fill="#ffffff" opacity="1" stroke-width="4" stroke="none"></path><path d="M1202.74 606.04H1219C1222.84 606.04 1226.02 609.22 1226.02 613.07 1226.02 616.91 1222.84 620.09 1219 620.09H1202.74C1198.89 620.09 1195.71 616.91 1195.71 613.07 1195.71 609.22 1198.89 606.04 1202.74 606.04Z" fill="#3c2c5b" opacity="1" stroke-width="4" stroke="none"></path><path d="M1320.25 606.04H1336.51C1340.35 606.04 1343.53 609.22 1343.53 613.07 1343.53 616.91 1340.35 620.09 1336.51 620.09H1320.25C1316.41 620.09 1313.23 616.91 1313.23 613.07 1313.23 609.22 1316.41 606.04 1320.25 606.04Z" fill="#ffffff" opacity="1" stroke-width="4" stroke="none"></path><path d="M1247.08 718.02H1336.51C1340.35 718.02 1343.53 721.19 1343.53 725.04 1343.53 728.88 1340.35 732.06 1336.51 732.06H1247.08C1243.24 732.06 1240.06 728.88 1240.06 725.04 1240.06 721.19 1243.24 718.02 1247.08 718.02Z" fill="#231f20" opacity="1" stroke-width="4" stroke="none"></path><path d="M1202.74 718.02H1219C1222.84 718.02 1226.02 721.19 1226.02 725.04 1226.02 728.88 1222.84 732.06 1219 732.06H1202.74C1198.89 732.06 1195.71 728.88 1195.71 725.04 1195.71 721.19 1198.89 718.02 1202.74 718.02Z" fill="#9e76dd" opacity="1" stroke-width="4" stroke="none"></path></g><g><path d="M390.72 819.57C408.03 749.9 406.12 689.46 386.45 684.57 366.78 679.68 336.81 732.21 319.5 801.88 302.19 871.55 304.1 932 323.77 936.89 343.44 941.77 373.41 889.25 390.72 819.57Z" stroke="#231f20" stroke-width="4" stroke-linecap="round" stroke-linejoin="round" opacity="1" fill="none"></path><path d="M448.44 900.8C462.5 886.21 432.01 834 380.32 784.17 328.64 734.35 275.34 705.78 261.28 720.37 247.21 734.96 277.71 787.18 329.39 837.01 381.08 886.83 434.38 915.39 448.44 900.8Z" stroke="#231f20" stroke-width="4" stroke-linecap="round" stroke-linejoin="round" opacity="1" fill="none"></path><path d="M365.24 845.89C434.23 826.04 485.62 794.16 480.01 774.68 474.41 755.21 413.94 755.51 344.94 775.36 275.95 795.21 224.56 827.09 230.17 846.56 235.77 866.04 296.24 865.74 365.24 845.89Z" stroke="#231f20" stroke-width="4" stroke-linecap="round" stroke-linejoin="round" opacity="1" fill="none"></path><path d="M355.09 831.07C366.38 831.07 375.53 821.92 375.53 810.64 375.53 799.35 366.38 790.2 355.09 790.2 343.81 790.2 334.66 799.35 334.66 810.64 334.66 821.92 343.81 831.07 355.09 831.07Z" fill="#9e76dd" opacity="1" stroke-width="4" stroke="none"></path><path d="M270.05 774.72C275.91 774.72 280.66 769.98 280.66 764.12 280.66 758.26 275.91 753.51 270.05 753.51 264.2 753.51 259.45 758.26 259.45 764.12 259.45 769.98 264.2 774.72 270.05 774.72Z" fill="#61ccff" opacity="1" stroke-width="4" stroke="none"></path><path d="M454.57 818.63C460.43 818.63 465.17 813.89 465.17 808.03 465.17 802.17 460.43 797.42 454.57 797.42 448.71 797.42 443.96 802.17 443.96 808.03 443.96 813.89 448.71 818.63 454.57 818.63Z" fill="#61ccff" opacity="1" stroke-width="4" stroke="none"></path><path d="M307.62 910.89C313.48 910.89 318.23 906.14 318.23 900.28 318.23 894.42 313.48 889.67 307.62 889.67 301.76 889.67 297.01 894.42 297.01 900.28 297.01 906.14 301.76 910.89 307.62 910.89Z" fill="#61ccff" opacity="1" stroke-width="4" stroke="none"></path></g><g><path d="M1121.64 1024.13C1146.86 1020.55 1164.41 997.19 1160.83 971.96 1157.25 946.73 1133.89 929.19 1108.66 932.77 1083.43 936.35 1065.88 959.71 1069.47 984.94 1073.05 1010.16 1096.4 1027.71 1121.64 1024.13Z" fill="#ffc930" opacity="1" stroke-width="4" stroke="none"></path><path d="M1241.68 1102.48C1260.38 1099.83 1273.39 1082.52 1270.73 1063.82 1268.08 1045.12 1250.77 1032.11 1232.07 1034.77 1213.37 1037.42 1200.36 1054.73 1203.02 1073.43 1205.67 1092.13 1222.98 1105.14 1241.68 1102.48Z" fill="#ffa0dc" opacity="1" stroke-width="4" stroke="none"></path></g><g><path d="M640.16 249.06C628.88 249.06 619.73 239.91 619.73 228.63 619.73 217.35 628.88 208.21 640.16 208.21 651.44 208.21 660.58 217.35 660.58 228.63 660.58 239.91 651.44 249.06 640.16 249.06Z" fill="#ffc930" opacity="1" stroke-width="4" stroke="none"></path><path d="M679.84 162.1C668.56 162.1 659.42 152.96 659.42 141.67 659.42 130.39 668.56 121.25 679.84 121.25 691.12 121.25 700.27 130.39 700.27 141.67 700.27 152.96 691.12 162.1 679.84 162.1Z" fill="#9e76dd" opacity="1" stroke-width="4" stroke="none"></path></g><g><path d="M1163.94 225.18L1176.66 285.75 1135.76 246.32 1039.97 288.58 1106.21 219.51 1061.1 168.82 1127.34 184.28 1162.57 109.63 1158.36 185.75 1224.6 173.03 1163.94 225.18Z" stroke="#ffc930" stroke-width="4" stroke-linecap="round" stroke-linejoin="round" opacity="1" fill="none"></path></g><g><path d="M530.01 329.78H1069.99C1077.46 329.78 1084.84 331.25 1091.74 334.11 1098.64 336.96 1104.9 341.15 1110.18 346.43 1115.46 351.71 1119.65 357.97 1122.5 364.87 1125.36 371.77 1126.83 379.16 1126.83 386.62V781.38C1126.83 788.84 1125.36 796.23 1122.5 803.13 1119.65 810.02 1115.46 816.29 1110.18 821.57 1104.9 826.85 1098.63 831.04 1091.74 833.89 1084.84 836.75 1077.46 838.22 1069.99 838.22H530.01C522.54 838.22 515.16 836.75 508.26 833.89 501.36 831.04 495.1 826.85 489.82 821.57 484.54 816.29 480.35 810.02 477.5 803.13 474.64 796.23 473.17 788.84 473.17 781.38V781.38 386.62C473.17 379.16 474.64 371.77 477.5 364.87 480.35 357.97 484.54 351.71 489.82 346.43 495.1 341.15 501.36 336.96 508.26 334.11 515.16 331.25 522.54 329.78 530.01 329.78V329.78Z" fill="#3c2c5b" opacity="1" stroke-width="4" stroke="none"></path><path d="M765.58 408.01C765.59 398.98 769.18 390.31 775.57 383.93 781.96 377.54 790.62 373.95 799.66 373.94H1048.5C1057.54 373.95 1066.19 377.54 1072.58 383.93 1078.97 390.31 1082.57 398.98 1082.58 408.01V695.52C1047.81 671.39 1002.73 671.11 1002.28 671.11 1002.12 671.42 982.62 703.6 932.24 703.6 927.81 703.59 923.38 703.36 918.98 702.91 894.41 700.37 892.37 671.38 892.35 671.08 879.41 671.56 866.52 673.04 853.81 675.53 820.96 692.87 811.06 683.92 790.16 703.78 781.1 712.47 772.89 721.99 765.63 732.23L765.58 732.3V408.01Z" fill="#ffa0dc" opacity="1" stroke-width="4" stroke="none"></path><path d="M929.82 776.99C927.88 776.99 925.94 776.92 924.08 776.79 909.44 775.76 887.26 767.77 864.78 735.54 851.19 716.07 841.83 692.94 840.94 682.67 840.7 679.95 841.12 678.38 842.13 678.12 858.59 674.01 875.43 671.64 892.38 671.06L892.35 649.65C892.03 649.64 891.71 649.65 891.37 649.64 882.24 649.57 873.16 647.98 864.55 644.93 849.6 639.37 840.47 629.69 837.4 616.14 834.39 602.98 835.62 588.81 836.92 573.81 837.48 567.46 838.05 560.88 838.29 554.32 839.36 524.53 841.31 502.6 844.27 487.29 847.19 472.13 857.02 459.04 872.69 449.44 887.35 440.46 905.72 435.52 924.43 435.52 945.69 435.52 965.44 442.01 980.03 453.82 1006.03 474.78 1003.22 524.58 1003.2 525.08 1003.29 525.12 1014.28 531.67 1016.33 544.45 1018.03 555 1013.31 566.69 1002.3 579.16L1002.31 671.08C1002.32 671.08 1002.35 671.08 1002.42 671.08 1004.81 671.08 1044.97 671.85 1078.04 692.54 1078.48 692.82 1078.58 693.36 1078.36 694.15 1076.65 700.07 1056.17 720.43 1026.7 740.12 1006.09 753.89 966.1 776.99 929.82 776.99Z" fill="#935757" opacity="1" stroke-width="4" stroke="none"></path><path d="M1002.27 620.47C1002.12 620.39 986.77 612.25 979 596.72 978.67 596.04 1002.18 579.3 1002.26 579.22L1002.31 620.5 1002.27 620.47Z" fill="#231f15" opacity="1" stroke-width="4" stroke="none"></path><path d="M951.63 539.72C945.45 531.1 937.53 518 934.84 504.47 934.72 504.09 902.62 512.46 888.36 512.46 871.92 512.46 860.29 508.85 853.41 505.82 845.96 502.55 842.35 499.22 842.32 499.19 842.93 494.72 843.66 490.66 844.27 487.29 847.19 472.13 857.02 459.04 872.69 449.44 887.34 440.46 905.72 435.52 924.43 435.52 945.69 435.52 965.44 442.01 980.03 453.82 1006.03 474.78 1003.22 524.58 1003.2 525.08 999.15 523.62 994.89 522.92 990.6 523 981.52 523 967.4 525.89 951.67 539.72L951.64 539.74 951.63 539.72Z" fill="#231f15" opacity="1" stroke-width="4" stroke="none"></path><path d="M892.08 649.65C919.66 649.2 933.6 640.27 933.6 640.27" stroke="#0d0d0d" stroke-width="4" stroke-linecap="round" stroke-linejoin="round" opacity="1" fill="none"></path><path d="M838.22 585.23C852.9 585.23 864.81 571.56 864.81 554.71 864.81 537.85 852.9 524.19 838.22 524.19 823.53 524.19 811.63 537.85 811.63 554.71 811.63 571.56 823.53 585.23 838.22 585.23Z" stroke="#000000" stroke-width="4" stroke-linecap="round" stroke-linejoin="round" opacity="1" fill="none"></path><path d="M905.24 585.23C919.93 585.23 931.83 571.56 931.83 554.71 931.83 537.85 919.93 524.19 905.24 524.19 890.55 524.19 878.65 537.85 878.65 554.71 878.65 571.56 890.55 585.23 905.24 585.23Z" stroke="#000000" stroke-width="4" stroke-linecap="round" stroke-linejoin="round" opacity="1" fill="none"></path><path d="M865.69 555.1H876.88" stroke="#000000" stroke-width="4" stroke-linecap="round" stroke-linejoin="round" opacity="1" fill="none"></path><path d="M932.71 550.88L950.77 540.46" stroke="#000000" stroke-width="4" stroke-linecap="round" stroke-linejoin="round" opacity="1" fill="none"></path><path d="M970.69 565.8L987.37 555.99" stroke="#0d0d0d" stroke-width="4" stroke-linecap="round" stroke-linejoin="round" opacity="1" fill="none"></path><path d="M868.54 600.14C873.05 602.59 880.9 601.61 883.85 596.71" stroke="#0d0d0d" stroke-width="4" stroke-linecap="round" stroke-linejoin="round" opacity="1" fill="none"></path><path d="M901.41 564.65C900.29 564.65 899.21 564.32 898.28 563.7 897.36 563.08 896.64 562.21 896.21 561.18 895.79 560.15 895.68 559.02 895.9 557.93 896.11 556.84 896.65 555.84 897.44 555.05 898.22 554.27 899.22 553.73 900.31 553.51 901.4 553.3 902.53 553.4 903.56 553.84 904.59 554.26 905.46 554.97 906.08 555.91 906.7 556.83 907.03 557.92 907.03 559.03 907.03 559.76 906.89 560.5 906.6 561.18 906.32 561.86 905.91 562.48 905.39 563 904.87 563.52 904.24 563.93 903.56 564.22 902.87 564.5 902.15 564.65 901.41 564.65V564.65Z" fill="#231f20" opacity="1" stroke-width="4" stroke="none"></path><path d="M850.68 564.65C849.56 564.65 848.48 564.32 847.56 563.7 846.63 563.08 845.91 562.21 845.49 561.18 845.06 560.15 844.95 559.02 845.17 557.93 845.38 556.84 845.92 555.84 846.71 555.05 847.49 554.27 848.49 553.73 849.58 553.51 850.67 553.3 851.8 553.4 852.83 553.84 853.86 554.26 854.73 554.97 855.35 555.91 855.97 556.83 856.3 557.92 856.3 559.03 856.3 559.76 856.16 560.5 855.87 561.18 855.59 561.86 855.18 562.48 854.66 563 854.13 563.52 853.52 563.93 852.83 564.22 852.15 564.5 851.42 564.65 850.68 564.65Z" fill="#231f20" opacity="1" stroke-width="4" stroke="none"></path><path d="M870.6 573.65C869.62 578.55 868.64 584.44 873.54 585.42" stroke="#0d0d0d" stroke-width="4" stroke-linecap="round" stroke-linejoin="round" opacity="1" fill="none"></path><path d="M892.35 649.6C892.65 649.55 919.61 647.97 933.38 640.4L892.35 686.86V649.6Z" fill="#0d0d0d" opacity="0.3" stroke-width="4" stroke="none"></path><path d="M561.51 793.94V750.76" stroke="#000000" stroke-width="4" stroke-linecap="round" stroke-linejoin="round" opacity="1" fill="none"></path><path d="M577.8 793.94V750.76" stroke="#000000" stroke-width="4" stroke-linecap="round" stroke-linejoin="round" opacity="1" fill="none"></path><path d="M594.19 793.94V750.76" stroke="#000000" stroke-width="4" stroke-linecap="round" stroke-linejoin="round" opacity="1" fill="none"></path><path d="M528.74 793.94V750.76" stroke="#000000" stroke-width="4" stroke-linecap="round" stroke-linejoin="round" opacity="1" fill="none"></path><path d="M626.96 793.94V750.76" stroke="#000000" stroke-width="4" stroke-linecap="round" stroke-linejoin="round" opacity="1" fill="none"></path><path d="M643.35 793.94V750.76" stroke="#000000" stroke-width="4" stroke-linecap="round" stroke-linejoin="round" opacity="1" fill="none"></path><path d="M659.73 793.94V750.76" stroke="#000000" stroke-width="4" stroke-linecap="round" stroke-linejoin="round" opacity="1" fill="none"></path><path d="M676.02 793.94V750.76" stroke="#000000" stroke-width="4" stroke-linecap="round" stroke-linejoin="round" opacity="1" fill="none"></path><path d="M708.79 793.94V750.76" stroke="#000000" stroke-width="4" stroke-linecap="round" stroke-linejoin="round" opacity="1" fill="none"></path><path d="M589.48 502.93C572.97 502.91 557.15 496.35 545.49 484.68 533.82 473.01 527.25 457.18 527.24 440.69V392.81C527.22 390.34 527.69 387.91 528.61 385.62 529.53 383.35 530.9 381.28 532.62 379.52 534.35 377.77 536.4 376.37 538.67 375.42 540.93 374.46 543.36 373.96 545.82 373.94 545.88 373.94 545.95 373.94 546.01 373.94H632.85C637.85 373.95 642.64 375.93 646.18 379.47 649.71 383 651.71 387.8 651.72 392.81V440.69C651.7 457.18 645.13 473.01 633.46 484.68 621.8 496.35 605.97 502.91 589.48 502.93V502.93Z" fill="#61ccff" opacity="1" stroke-width="4" stroke="none"></path><path d="M589.35 468.47C586.38 461.02 581.94 454.26 576.27 448.59 570.61 442.93 563.85 438.47 556.4 435.51 563.84 432.54 570.6 428.07 576.26 422.4 581.93 416.72 586.38 409.96 589.35 402.51 592.33 409.95 596.8 416.71 602.47 422.37 608.14 428.04 614.91 432.5 622.36 435.46 614.91 438.44 608.16 442.91 602.49 448.58 596.82 454.25 592.37 461.02 589.4 468.47L589.38 468.54 589.35 468.47Z" fill="#3c2c5b" opacity="1" stroke-width="4" stroke="none"></path><path d="M799.66 793.97C790.62 793.96 781.96 790.35 775.57 783.97 769.18 777.58 765.59 768.92 765.58 759.89V732.31C772.82 722.02 781.03 712.45 790.12 703.74 823.3 672.3 891.7 671.07 892.38 671.06 893.5 678.34 895.45 685.46 898.17 692.29 905.5 710.08 915.51 714.68 922.61 715.41 926.01 715.76 929.43 715.95 932.85 715.95 985.04 715.95 1002.09 671.53 1002.25 671.08 1002.26 671.08 1002.28 671.08 1002.32 671.08 1004.33 671.08 1048.45 671.76 1082.57 695.5L1082.58 759.89C1082.55 768.93 1078.94 777.6 1072.53 783.99 1066.12 790.37 1057.45 793.97 1048.4 793.97H799.66Z" fill="#ffffff" opacity="1" stroke-width="4" stroke="none"></path><path d="M938.08 736.36C929.8 736.33 921.54 735.61 913.37 734.21 876.62 728.09 860.78 692.12 860.46 674.22 871 672.35 881.68 671.25 892.38 670.96 892.46 671.24 898.28 697.22 922.61 701.57 928.14 702.57 933.75 703.09 939.39 703.1H939.39C982.1 703.1 1002.06 671.29 1002.25 670.97 1013.58 671.33 1024.83 672.84 1035.84 675.47 1028.53 690.57 1017.91 703.84 1004.77 714.29 986.13 728.94 963.69 736.36 938.09 736.36L938.08 736.36Z" fill="#a7a7a7" opacity="1" stroke-width="4" stroke="none"></path><path d="M996.69 678.15L1027.11 688.94" stroke="#6c6c6c" stroke-width="4" stroke-linecap="round" stroke-linejoin="round" opacity="1" fill="none"></path><path d="M983.64 689.73L1007.19 712.3" stroke="#6c6c6c" stroke-width="4" stroke-linecap="round" stroke-linejoin="round" opacity="1" fill="none"></path><path d="M962.77 700.08L978.83 728" stroke="#6c6c6c" stroke-width="4" stroke-linecap="round" stroke-linejoin="round" opacity="1" fill="none"></path><path d="M940.76 703.37L943.31 736.1" stroke="#6c6c6c" stroke-width="4" stroke-linecap="round" stroke-linejoin="round" opacity="1" fill="none"></path><path d="M919.56 701.39L909.85 733.27" stroke="#6c6c6c" stroke-width="4" stroke-linecap="round" stroke-linejoin="round" opacity="1" fill="none"></path><path d="M905.12 693.33L880.3 716.4" stroke="#6c6c6c" stroke-width="4" stroke-linecap="round" stroke-linejoin="round" opacity="1" fill="none"></path><path d="M895.13 680.83L865.3 692.41" stroke="#6c6c6c" stroke-width="4" stroke-linecap="round" stroke-linejoin="round" opacity="1" fill="none"></path><path d="M547.38 793.97C542.01 793.96 536.87 791.83 533.07 788.03 529.28 784.23 527.15 779.09 527.14 773.72V743.5C527.15 738.13 529.28 732.99 533.07 729.19 536.87 725.4 542.01 723.27 547.38 723.26H696.82C702.19 723.27 707.33 725.4 711.13 729.19 714.92 732.99 717.06 738.13 717.07 743.5V773.72C717.03 779.08 714.88 784.2 711.09 787.99 707.3 791.78 702.18 793.93 696.82 793.97H547.38Z" fill="#465e69" opacity="0.3" stroke-width="4" stroke="none"></path></g></svg>