<?xml version="1.0" encoding="UTF-8" standalone="no"?>
<svg
   height="1227"
   width="1627"
   version="1.1"
   id="svg164"
   sodipodi:docname="maintenance.svg"
   inkscape:version="1.1.2 (0a00cf5339, 2022-02-04)"
   xmlns:inkscape="http://www.inkscape.org/namespaces/inkscape"
   xmlns:sodipodi="http://sodipodi.sourceforge.net/DTD/sodipodi-0.dtd"
   xmlns="http://www.w3.org/2000/svg"
   xmlns:svg="http://www.w3.org/2000/svg">
  <defs
     id="defs168" />
  <sodipodi:namedview
     id="namedview166"
     pagecolor="#ffffff"
     bordercolor="#666666"
     borderopacity="1.0"
     inkscape:pageshadow="2"
     inkscape:pageopacity="0.0"
     inkscape:pagecheckerboard="0"
     showgrid="false"
     inkscape:zoom="0.58598207"
     inkscape:cx="813.16481"
     inkscape:cy="613.5"
     inkscape:window-width="2560"
     inkscape:window-height="1376"
     inkscape:window-x="0"
     inkscape:window-y="0"
     inkscape:window-maximized="1"
     inkscape:current-layer="svg164" />
  <rect
     fill="#f3ebe9"
     width="1627"
     height="1227"
     id="rect2"
     style="fill:none" />
  <g
     id="g12">
    <path
       d="M694.47 451.93H342.35C318.5 451.93 299.22 471.2 299.22 495.05V825.88C299.22 849.73 318.5 869.01 342.35 869.01H694.47C718.32 869.01 737.6 849.73 737.6 825.88V495.05C737.6 471.2 718.24 451.93 694.47 451.93Z"
       fill="#2d3430"
       opacity="1"
       stroke-width="4"
       stroke="none"
       id="path4" />
    <path
       d="M346.38 528.5C356.17 528.5 364.11 520.56 364.11 510.77 364.11 500.97 356.17 493.04 346.38 493.04 336.58 493.04 328.65 500.97 328.65 510.77 328.65 520.56 336.58 528.5 346.38 528.5Z"
       fill="#f3ebe9"
       opacity="1"
       stroke-width="4"
       stroke="none"
       id="path6" />
    <path
       d="M397.86 528.5C407.66 528.5 415.59 520.56 415.59 510.77 415.59 500.97 407.66 493.04 397.86 493.04 388.07 493.04 380.13 500.97 380.13 510.77 380.13 520.56 388.07 528.5 397.86 528.5Z"
       fill="#f3ebe9"
       opacity="1"
       stroke-width="4"
       stroke="none"
       id="path8" />
    <path
       d="M449.43 528.5C459.22 528.5 467.16 520.56 467.16 510.77 467.16 500.97 459.22 493.04 449.43 493.04 439.63 493.04 431.7 500.97 431.7 510.77 431.7 520.56 439.63 528.5 449.43 528.5Z"
       fill="#f3ebe9"
       opacity="1"
       stroke-width="4"
       stroke="none"
       id="path10" />
  </g>
  <g
     id="g20">
    <path
       d="M1265.68 348.11L957.98 348.11C922 348.11 892.84 377.27 892.84 413.24V719.35C892.84 755.33 922 784.49 957.98 784.49H1265.68C1301.66 784.49 1330.82 755.33 1330.82 719.35V413.24C1330.82 377.27 1301.66 348.11 1265.68 348.11Z"
       fill="#07ace4"
       opacity="1"
       stroke-width="4"
       stroke="none"
       id="path14" />
    <path
       d="M1222.59 406.14L1272.64 456.19"
       stroke="#000000"
       stroke-width="4"
       stroke-linecap="round"
       stroke-linejoin="round"
       opacity="1"
       fill="none"
       id="path16" />
    <path
       d="M1222.59 456.19L1272.64 406.14"
       stroke="#000000"
       stroke-width="4"
       stroke-linecap="round"
       stroke-linejoin="round"
       opacity="1"
       fill="none"
       id="path18" />
  </g>
  <g
     id="g88">
    <path
       d="M714.08 581.87C714.63 569.16 702.03 568.61 702.03 568.61 698.96 560.39 693.7 559.73 689.86 560.61 689.86 560.5 689.76 560.39 689.76 560.28 689.1 559.07 687.89 558.64 686.36 558.86 688.77 549.32 694.14 523.79 684.39 522.91 677.7 522.37 664.66 558.86 655.35 587.57 655.24 587.78 655.13 588.11 655.02 588.33 653.59 592.5 650.96 600.82 648.55 608.93 643.73 623.4 637.81 645.97 633.21 665.48L701.26 685.97C702.36 675.34 703.01 666.57 704.11 662.19 718.79 650.68 714.41 633.15 713.1 619.23 713.97 619.01 714.96 618.47 715.62 617.81 720.11 614.08 724.6 604.88 724.38 593.92 724.05 580.66 714.08 581.87 714.08 581.87Z"
       fill="#fcb28d"
       opacity="1"
       stroke-width="4"
       stroke="none"
       id="path22" />
    <path
       d="M686.14 604.66C694.91 595.89 698.63 586.58 702.58 570.25"
       stroke="#0c0c0c"
       stroke-width="4"
       stroke-linecap="round"
       stroke-linejoin="round"
       opacity="1"
       fill="none"
       id="path24" />
    <path
       d="M702.91 610.69C707.29 605.21 712.77 592.06 715.18 582.85"
       stroke="#0c0c0c"
       stroke-width="4"
       stroke-linecap="round"
       stroke-linejoin="round"
       opacity="1"
       fill="none"
       id="path26" />
    <path
       d="M712.88 619.45C707.51 620.44 703.12 618.36 703.12 609.59 703.12 609.59 698.63 615.07 693.15 613.97 688.55 613.1 686.91 609.7 685.37 605.32"
       stroke="#0c0c0c"
       stroke-width="4"
       stroke-linecap="round"
       stroke-linejoin="round"
       opacity="1"
       fill="none"
       id="path28" />
    <path
       d="M712.99 619.01C712.44 619.34 711.89 619.56 711.34 619.67 705.97 620.66 702.47 619.56 701.59 609.92 699.62 613.32 695.56 615.07 691.73 614.3L690.96 614.85 689.43 614.74C690.85 619.12 687.34 617.37 691.4 619.78 693.04 620.77 697.54 622.3 699.95 619.45 703.23 629.75 713.53 624.06 713.42 622.85 713.1 621.54 712.99 620.33 712.99 619.01Z"
       fill="#0c0c0c"
       opacity="0.2"
       stroke-width="4"
       stroke="none"
       id="path30" />
    <path
       d="M658.1 583.29C663.58 573.43 685.27 550.97 689.88 559.18 695.35 569.05 680.01 594.25 680.01 594.25 680.01 594.25 696.34 620.55 692.07 644.66"
       stroke="#0c0c0c"
       stroke-width="4"
       stroke-linecap="round"
       stroke-linejoin="round"
       opacity="1"
       fill="none"
       id="path32" />
    <path
       d="M543.58 589.98C542.48 585.81 532.95 586.36 532.95 586.36 532.62 584.5 532.4 582.52 531.96 580.55 528.56 563.46 524.95 550.2 514.54 539.9 505.77 531.13 483.42 523.79 456.02 533.76 423.37 548.45 420.41 570.47 421.39 590.52 422.05 602.91 427.53 663.72 427.97 668.11H503.14L501.17 652.66C526.37 655.83 534.59 645.09 538.32 635.78 542.48 625.26 539.85 612.44 536.56 600.71 536.34 600.82 544.67 595.24 543.58 589.98Z"
       fill="#fcb28d"
       opacity="1"
       stroke-width="4"
       stroke="none"
       id="path34" />
    <path
       d="M426.43 653.2V652.98C425.67 644.33 421.83 600.82 421.28 590.41 420.3 570.03 423.59 547.02 456.13 532.45 464.46 529.49 472.9 527.95 481.11 527.95 498.1 527.95 510.48 534.2 515.85 539.68 523.85 547.68 527.03 557.43 529.33 566.74V566.85L529.22 566.96C529.22 566.96 525.06 571.02 515.63 571.02 513.22 571.02 510.59 570.69 507.96 570.25 508.51 574.85 507.85 578.25 505.88 580.44 504.35 582.2 502.04 583.07 498.98 583.07 496.02 583.07 493.17 582.2 492.29 581.87 492.51 583.95 493.39 596.11 486.81 604.33L486.7 604.44 486.48 604.33C486.37 604.22 473.88 596.11 462.6 596.11 456.9 596.11 452.62 598.19 449.45 602.14 437.5 617.81 462.71 637.75 463.03 637.97L463.25 638.08 463.14 638.3C451.64 653.09 426.76 653.2 426.43 653.2Z"
       fill="#000000"
       opacity="1"
       stroke-width="4"
       stroke="none"
       id="path36" />
    <path
       d="M501.06 652.66C501.06 652.66 492.29 651.23 479.25 645.09L500.84 666.9 502.81 666.46 501.06 652.66Z"
       fill="#0c0c0c"
       opacity="0.2"
       stroke-width="4"
       stroke="none"
       id="path38" />
    <path
       d="M529.66 850.67H370.29V867.98H529.66V850.67Z"
       fill="#db99a3"
       opacity="1"
       stroke-width="4"
       stroke="none"
       id="path40" />
    <path
       d="M633.43 664.05C627.95 686.63 623.79 705.91 623.79 705.91 548.29 679.5 504.46 677.97 504.46 677.97L503.8 677.75 477.61 669.42 428.74 677.97 407.04 677.75H401.67 399.81C379.97 677.75 353.45 694.95 355.32 728.7 356.19 745.91 359.37 762.67 364.08 778.56 362.66 802.34 358.06 809.03 358.17 829.74 358.17 844.31 370.33 850.78 370.33 850.78L402.22 854.28C409.78 864.15 417.78 872.47 425.45 878.94 452.51 901.51 513.33 892.75 540.18 887.38L547.63 826.01C542.48 825.13 537.22 824.26 532.07 823.49L538.21 774.18C538.21 774.18 621.93 798.73 656.55 786.01 685.92 775.17 697.21 726.4 701.26 685.2L633.43 664.05Z"
       fill="#07ace4"
       opacity="1"
       stroke-width="4"
       stroke="none"
       id="path42" />
    <path
       d="M504.47 677.97L502.93 664.82H478.5 477.62 427.65C427.65 664.82 428.75 676.54 428.86 677.97L463.81 693.2 478.17 671.72 490.22 693.2 504.47 677.97Z"
       fill="#db99a3"
       opacity="1"
       stroke-width="4"
       stroke="none"
       id="path44" />
    <path
       d="M543.81 745.14L540.3 773.19"
       stroke="#000000"
       stroke-width="4"
       stroke-linecap="round"
       stroke-linejoin="round"
       opacity="1"
       fill="none"
       id="path46" />
    <path
       d="M477.83 723.34C482.13 723.34 485.61 719.85 485.61 715.55 485.61 711.25 482.13 707.77 477.83 707.77 473.53 707.77 470.05 711.25 470.05 715.55 470.05 719.85 473.53 723.34 477.83 723.34Z"
       fill="#000000"
       opacity="1"
       stroke-width="4"
       stroke="none"
       id="path48" />
    <path
       d="M680 710.62C684.31 710.62 687.78 707.14 687.78 702.84 687.78 698.54 684.31 695.06 680 695.06 675.71 695.06 672.22 698.54 672.22 702.84 672.22 707.14 675.71 710.62 680 710.62Z"
       fill="#000000"
       opacity="1"
       stroke-width="4"
       stroke="none"
       id="path50" />
    <path
       d="M622.03 706.57L618.53 723.34"
       stroke="#000000"
       stroke-width="4"
       stroke-linecap="round"
       stroke-linejoin="round"
       opacity="1"
       fill="none"
       id="path52" />
    <path
       d="M501.07 653.09C496.03 652.22 489.02 650.35 483.32 646.52"
       stroke="#0c0c0c"
       stroke-width="4"
       stroke-linecap="round"
       stroke-linejoin="round"
       opacity="1"
       fill="none"
       id="path54" />
    <path
       d="M529.22 614.63C527.47 615.73 521 616.6 518.26 611.56"
       stroke="#0c0c0c"
       stroke-width="4"
       stroke-linecap="round"
       stroke-linejoin="round"
       opacity="1"
       fill="none"
       id="path56" />
    <path
       d="M518.27 593.04C520.03 593.04 521.45 591.62 521.45 589.87 521.45 588.1 520.03 586.69 518.27 586.69 516.51 586.69 515.1 588.1 515.1 589.87 515.1 591.62 516.51 593.04 518.27 593.04Z"
       fill="#000000"
       opacity="1"
       stroke-width="4"
       stroke="none"
       id="path58" />
    <path
       d="M465.24 613.54L475.21 619.23"
       stroke="#0c0c0c"
       stroke-width="4"
       stroke-linecap="round"
       stroke-linejoin="round"
       opacity="1"
       fill="none"
       id="path60" />
    <path
       d="M477.83 723.34C482.13 723.34 485.61 719.85 485.61 715.55 485.61 711.25 482.13 707.77 477.83 707.77 473.53 707.77 470.05 711.25 470.05 715.55 470.05 719.85 473.53 723.34 477.83 723.34Z"
       fill="#000000"
       opacity="1"
       stroke-width="4"
       stroke="none"
       id="path62" />
    <path
       d="M601.21 841.68C621.27 851.65 639.79 867.1 653.92 885.29 660.28 893.51 674.09 910.72 664.22 912.91 656 914.77 635.84 893.62 635.84 893.62 635.84 893.62 648.33 924.96 641.21 930.88 635.73 935.48 628.5 928.14 628.5 928.14 622.14 941.84 612.17 930 612.17 930 592.45 945.67 580.28 898.12 580.28 898.12 570.86 894.83 562.09 890.23 553.88 884.42 553.88 884.42 539.74 883.87 539.08 883.32L547.41 826.01C567.35 829.63 587.41 834.78 601.21 841.68Z"
       fill="#fcb28d"
       opacity="1"
       stroke-width="4"
       stroke="none"
       id="path64" />
    <path
       d="M637.06 895.38C634.1 887.71 633.77 886.5 629.06 876.75"
       stroke="#0c0c0c"
       stroke-width="4"
       stroke-linecap="round"
       stroke-linejoin="round"
       opacity="1"
       fill="none"
       id="path66" />
    <path
       d="M612.07 882.55C619.74 898.88 625.22 916.96 628.4 928.14"
       stroke="#0c0c0c"
       stroke-width="4"
       stroke-linecap="round"
       stroke-linejoin="round"
       opacity="1"
       fill="none"
       id="path68" />
    <path
       d="M594.76 888.03C600.46 901.18 606.38 919.05 610.1 930.88"
       stroke="#0c0c0c"
       stroke-width="4"
       stroke-linecap="round"
       stroke-linejoin="round"
       opacity="1"
       fill="none"
       id="path70" />
    <path
       d="M623.79 705.8C620.17 704.6 616.78 703.39 613.27 702.19L615.79 743.28 623.79 705.8Z"
       fill="#000000"
       opacity="0.2"
       stroke-width="4"
       stroke="none"
       id="path72" />
    <path
       d="M542.48 742.62L538.21 774.18C538.21 774.18 568.12 782.84 599.46 787.33 599.24 787.11 557.27 758.95 542.48 742.62Z"
       fill="#000000"
       opacity="0.2"
       stroke-width="4"
       stroke="none"
       id="path74" />
    <path
       d="M376.36 814.4C373.69 853.91 378.16 851.63 378.83 851.73L399.17 854.25 376.36 814.4C377.34 806.29 376.25 814.29 376.36 814.4Z"
       fill="#000000"
       opacity="0.2"
       stroke-width="4"
       stroke="none"
       id="path76" />
    <path
       d="M444.3 757.74C443.09 764.21 471.58 814.4 471.58 814.4L487.47 815.82 445.39 757.2C445.28 757.2 444.62 756.98 444.3 757.74Z"
       fill="#000000"
       opacity="0.2"
       stroke-width="4"
       stroke="none"
       id="path78" />
    <path
       d="M444.3 757.74L470.81 815.05"
       stroke="#000000"
       stroke-width="4"
       stroke-linecap="round"
       stroke-linejoin="round"
       opacity="1"
       fill="none"
       id="path80" />
    <path
       d="M398.82 852.86C393.12 844.86 386.88 835.11 382.38 826.23 378.88 819.33 375.92 812.09 373.51 804.75"
       stroke="#000000"
       stroke-width="4"
       stroke-linecap="round"
       stroke-linejoin="round"
       opacity="1"
       fill="none"
       id="path82" />
    <path
       d="M530.77 821.41C498.99 816.59 481.56 816.04 469.73 815.05 461.95 814.4 451.21 814.07 451.21 814.07"
       stroke="#000000"
       stroke-width="4"
       stroke-linecap="round"
       stroke-linejoin="round"
       opacity="1"
       fill="none"
       id="path84" />
    <path
       d="M517.82 877.19C522.13 877.19 525.6 873.7 525.6 869.41 525.6 865.1 522.13 861.63 517.82 861.63 513.53 861.63 510.04 865.1 510.04 869.41 510.04 873.7 513.53 877.19 517.82 877.19Z"
       fill="#000000"
       opacity="1"
       stroke-width="4"
       stroke="none"
       id="path86" />
  </g>
  <g
     id="g148">
    <path
       d="M996.58 508.47C996.58 501.03 996.12 489.49 996.88 478.41 996.88 478.33 996.96 478.26 996.96 478.26L1065.51 439.46C1065.59 439.39 1065.74 439.46 1065.74 439.54L1087.84 469.53V469.6L1109.55 540.59C1109.55 540.59 1109.55 540.59 1109.55 540.67 1111.22 558.05 1112.36 571.57 1112.43 572.02 1112.36 572.86 1108.18 632.38 1073.49 632.38 1038.94 632.38 1043.27 585.76 1043.34 584.78L1040.99 562.08C1040.99 561.92 1040.84 561.85 1040.69 561.92 1038.56 563.14 1023.98 571.11 1008.34 562.53 991.03 552.97 996.58 522.82 996.58 508.47Z"
       fill="#fcb28d"
       opacity="1"
       stroke-width="4"
       stroke="none"
       id="path90" />
    <path
       d="M1042.51 576.05L1041.07 561.77C1041.07 561.77 1054.58 554.94 1061.26 550.54L1042.51 576.05Z"
       fill="#2c2724"
       opacity="0.2"
       stroke-width="4"
       stroke="none"
       id="path92" />
    <path
       d="M1157.76 686.36L1171.05 739.81 1178.41 681.58 1157.76 686.36Z"
       fill="#2c2724"
       opacity="0.2"
       stroke-width="4"
       stroke="none"
       id="path94" />
    <path
       d="M998.47 465.35C1000.22 451.84 1031.5 430.65 1055.26 430.65 1078.35 430.65 1086.17 449.94 1090.34 481.75 1090.64 484.1 1103.55 483.27 1106.06 505.67 1107.65 520.17 1108.79 532.24 1109.63 540.59 1106.89 540.67 1103.78 540.44 1100.29 539.91 1095.05 539.15 1088.59 537.4 1083.81 533.83 1083.81 533.83 1107.88 506.5 1087.46 493.37 1076.37 486.23 1058.07 509.23 1058.07 509.23 1058.07 509.23 1046.15 494.96 1052.53 476.66 1019.2 494.13 996.88 478.33 996.88 478.33 997.26 467.93 998.4 465.5 998.47 465.35Z"
       fill="#5b3700"
       opacity="1"
       stroke-width="4"
       stroke="none"
       id="path96" />
    <path
       d="M1079.56 512.5L1072.8 520.39"
       stroke="#2c2724"
       stroke-width="4"
       stroke-linecap="round"
       stroke-linejoin="round"
       opacity="1"
       fill="none"
       id="path98" />
    <path
       d="M1015.71 519.64C1014.95 521.31 1013.96 524.04 1014.42 525.56 1014.87 526.54 1015.71 527.3 1016.7 527.68"
       stroke="#2c2724"
       stroke-width="4"
       stroke-linecap="round"
       stroke-linejoin="round"
       opacity="1"
       fill="none"
       id="path100" />
    <path
       d="M1025.96 531.56C1026.03 534.52 1023.68 537.02 1020.64 537.1 1020.57 537.1 1020.49 537.1 1020.42 537.1"
       stroke="#2c2724"
       stroke-width="4"
       stroke-linecap="round"
       stroke-linejoin="round"
       opacity="1"
       fill="none"
       id="path102" />
    <path
       d="M1041.07 561.7L1055.72 553.88"
       stroke="#2c2724"
       stroke-width="4"
       stroke-linecap="round"
       stroke-linejoin="round"
       opacity="1"
       fill="none"
       id="path104" />
    <path
       d="M1030.29 510.9C1031.84 510.9 1033.1 509.64 1033.1 508.1 1033.1 506.55 1031.84 505.29 1030.29 505.29 1028.74 505.29 1027.48 506.55 1027.48 508.1 1027.48 509.64 1028.74 510.9 1030.29 510.9Z"
       fill="#17151c"
       opacity="1"
       stroke-width="4"
       stroke="none"
       id="path106" />
    <path
       d="M1006.52 510.9C1008.07 510.9 1009.33 509.64 1009.33 508.1 1009.33 506.55 1008.07 505.29 1006.52 505.29 1004.97 505.29 1003.71 506.55 1003.71 508.1 1003.71 509.64 1004.97 510.9 1006.52 510.9Z"
       fill="#17151c"
       opacity="1"
       stroke-width="4"
       stroke="none"
       id="path108" />
    <path
       d="M1092.69 412.43C1107.37 412.43 1119.27 400.54 1119.27 385.86 1119.27 371.18 1107.37 359.29 1092.69 359.29 1078.02 359.29 1066.12 371.18 1066.12 385.86 1066.12 400.54 1078.02 412.43 1092.69 412.43Z"
       fill="#191516"
       opacity="1"
       stroke-width="4"
       stroke="none"
       id="path110" />
    <path
       d="M1102.34 475.45C1100.51 465.43 1101.12 454.95 1104.84 445.46 1105.22 444.47 1105.53 443.49 1105.75 442.42 1109.4 426.63 1094.21 409.62 1071.82 404.46 1049.42 399.3 1028.31 407.88 1024.67 423.75 1024.59 424.13 1024.52 424.5 1024.44 424.88 1023.15 432.86 1018.82 440.07 1012.44 445 1008.8 447.66 1005.54 450.93 1002.8 454.57 1000.75 457.45 999.31 461.25 998.32 465.65L1106.06 505.51C1104.99 495.72 1103.78 486.46 1102.79 479.17 1102.79 477.88 1102.56 476.66 1102.34 475.45Z"
       fill="#191516"
       opacity="1"
       stroke-width="4"
       stroke="none"
       id="path112" />
    <path
       d="M1241.2 649.08C1217.51 617.8 1186.15 589.56 1162.54 580.37V580.3C1161.48 579.92 1160.34 579.54 1159.28 579.16 1134.3 570.81 1112.51 572.02 1112.51 572.02 1112.51 572.02 1097.4 606.95 1069.61 606.95 1045.77 606.95 1043.42 584.7 1043.42 584.7 1043.42 584.7 1026.41 588.72 1008.95 606.95 1008.95 606.95 985.95 631.24 967.04 670.04L1018.06 704.73 1021.63 741.94 1164.59 790.37 1175.6 703.82 1182.81 710.05 1241.2 649.08Z"
       fill="#db99a3"
       opacity="1"
       stroke-width="4"
       stroke="none"
       id="path114" />
    <path
       d="M1175.6 703.82L1159.35 687.65"
       stroke="#393939"
       stroke-width="4"
       stroke-linecap="round"
       stroke-linejoin="round"
       opacity="1"
       fill="none"
       id="path116" />
    <path
       d="M1115.32 756.21C1095.5 746.72 1023.23 735.56 1023.23 735.56L1019.81 704.81 967.04 670.04C961.12 682.11 954.52 695.32 951.33 709.74 948.97 720.68 949.13 740.87 952.09 752.19 955.73 765.93 961.8 777.24 975.77 781.72L1129.97 816.42 1144.7 818.92C1144.7 818.92 1152.67 818.92 1151.08 810.19 1155.03 810.95 1157.76 809.81 1159.81 807.84 1162.16 805.48 1159.81 799.86 1159.81 799.86 1159.81 799.86 1165.35 799.11 1161.4 790.37 1157.61 782.1 1135.14 765.78 1115.32 756.21Z"
       fill="#fcb28d"
       opacity="1"
       stroke-width="4"
       stroke="none"
       id="path118" />
    <path
       d="M1023.23 735.56L1019.81 704.81 1009.86 698.2 1004.85 738.6 1023.23 735.56Z"
       fill="#2c2724"
       opacity="0.2"
       stroke-width="4"
       stroke="none"
       id="path120" />
    <path
       d="M1023.23 735.56L1002.57 738.98"
       stroke="#2c2724"
       stroke-width="4"
       stroke-linecap="round"
       stroke-linejoin="round"
       opacity="1"
       fill="none"
       id="path122" />
    <path
       d="M1065.89 802.07L1129.97 816.49 1144.7 819C1144.7 819 1152.67 819 1151.08 810.27 1155.03 811.03 1157.76 809.89 1159.81 807.91 1162.16 805.56 1159.81 799.94 1159.81 799.94L1121.09 792.88 1065.89 802.07Z"
       fill="#2c2724"
       opacity="0.2"
       stroke-width="4"
       stroke="none"
       id="path124" />
    <path
       d="M1159.81 799.86C1141.59 786.35 1110.61 768.89 1110.61 768.89"
       stroke="#2c2724"
       stroke-width="4"
       stroke-linecap="round"
       stroke-linejoin="round"
       opacity="1"
       fill="none"
       id="path126" />
    <path
       d="M1150.62 810.65C1131.95 799.11 1102.56 781.64 1102.56 781.64"
       stroke="#2c2724"
       stroke-width="4"
       stroke-linecap="round"
       stroke-linejoin="round"
       opacity="1"
       fill="none"
       id="path128" />
    <path
       d="M1132.02 815.73C1118.51 808.6 1094.67 795.92 1094.67 795.92"
       stroke="#2c2724"
       stroke-width="4"
       stroke-linecap="round"
       stroke-linejoin="round"
       opacity="1"
       fill="none"
       id="path130" />
    <path
       d="M1241.12 648.93L1182.36 709.67 1200.28 726.07 1148.65 787.19C1148.65 787.19 1124.35 790.37 1112.43 795.16 1100.51 799.94 1092.69 803.36 1089.43 807.08 1086.32 810.57 1085.48 814.21 1092.92 817.25 1085.86 827.73 1080.7 838.74 1079.86 843.6 1078.27 853.09 1084.65 853.92 1084.65 853.92 1087 864.25 1096.57 860.3 1096.57 860.3 1096.57 860.3 1096.57 865.84 1106.13 864.25 1117.98 862.27 1132.78 845.11 1134.53 843.06H1134.6C1133.24 845.8 1121.01 871.31 1130.81 868.27 1144.47 864.1 1157 838.13 1157 838.13 1195.87 836.54 1195.87 819.91 1195.87 819.91 1195.87 819.91 1272.86 777.01 1276.05 728.57 1277.41 706.94 1262.23 676.72 1241.12 648.93Z"
       fill="#fcb28d"
       opacity="1"
       stroke-width="4"
       stroke="none"
       id="path132" />
    <path
       d="M1192 718.78L1200.28 726.07 1215.46 709.9 1192 718.78Z"
       fill="#2c2724"
       opacity="0.2"
       stroke-width="4"
       stroke="none"
       id="path134" />
    <path
       d="M1200.28 726.07L1210.6 714.91"
       stroke="#2c2724"
       stroke-width="4"
       stroke-linecap="round"
       stroke-linejoin="round"
       opacity="1"
       fill="none"
       id="path136" />
    <path
       d="M1084.65 853.92C1084.65 853.92 1091.56 840.41 1113.8 814.21"
       stroke="#2c2724"
       stroke-width="4"
       stroke-linecap="round"
       stroke-linejoin="round"
       opacity="1"
       fill="none"
       id="path138" />
    <path
       d="M1092.92 817.25C1095.28 814.06 1098.69 808.6 1100.29 807.76"
       stroke="#2c2724"
       stroke-width="4"
       stroke-linecap="round"
       stroke-linejoin="round"
       opacity="1"
       fill="none"
       id="path140" />
    <path
       d="M1096.57 860.3C1096.57 860.3 1111.75 841.32 1128.38 823.86"
       stroke="#2c2724"
       stroke-width="4"
       stroke-linecap="round"
       stroke-linejoin="round"
       opacity="1"
       fill="none"
       id="path142" />
    <path
       d="M1134.53 843.06C1138.48 838.28 1141.36 834.49 1141.36 834.49"
       stroke="#2c2724"
       stroke-width="4"
       stroke-linecap="round"
       stroke-linejoin="round"
       opacity="1"
       fill="none"
       id="path144" />
    <path
       d="M1019.81 704.81L1014.49 658.57"
       stroke="#393939"
       stroke-width="4"
       stroke-linecap="round"
       stroke-linejoin="round"
       opacity="1"
       fill="none"
       id="path146" />
  </g>
  <g
     id="g162">
    <path
       d="M706.75 375.17L846.93 342C855.35 340 863.78 345.21 865.77 353.63L892.66 467.24C894.65 475.66 889.44 484.09 881.02 486.08L740.84 519.25C732.43 521.25 723.99 516.04 722 507.62L695.11 394.01C693.12 385.6 698.33 377.16 706.75 375.17Z"
       fill="#ffffff"
       opacity="1"
       stroke-width="4"
       stroke="none"
       id="path150" />
    <path
       d="M758.69 414.23L735.04 419.83 750.48 485.08 774.13 479.48 758.69 414.23Z"
       fill="#61484a"
       opacity="1"
       stroke-width="4"
       stroke="none"
       id="path152" />
    <path
       d="M806.26 429.88L782.6 435.47 792 475.2 815.66 469.6 806.26 429.88Z"
       fill="#07ace4"
       opacity="1"
       stroke-width="4"
       stroke="none"
       id="path154" />
    <path
       d="M838.98 382.8L815.32 388.4 833.55 465.42 857.21 459.82 838.98 382.8Z"
       fill="#db99a3"
       opacity="1"
       stroke-width="4"
       stroke="none"
       id="path156" />
    <path
       d="M721.18 361.29L725.15 378.07"
       stroke="#191516"
       stroke-width="4"
       stroke-linecap="round"
       stroke-linejoin="round"
       opacity="1"
       fill="none"
       id="path158" />
    <path
       d="M827.97 336.26L831.95 353.09"
       stroke="#191516"
       stroke-width="4"
       stroke-linecap="round"
       stroke-linejoin="round"
       opacity="1"
       fill="none"
       id="path160" />
  </g>
</svg>
